<svg width="64" height="64" viewBox="0 0 64 64" fill="none" xmlns="http://www.w3.org/2000/svg">
  <path d="M28.41 7.34C29.77 4.22 34.23 4.22 35.59 7.34L37.53 11.78C38.17 13.24 39.74 14.03 41.29 13.69L46 12.67C49.31 11.95 52.46 15.1 51.74 18.41L50.72 23.12C50.38 24.67 51.17 26.24 52.63 26.88L57.07 28.82C60.19 30.18 60.19 34.64 57.07 36L52.63 37.94C51.17 38.58 50.38 40.15 50.72 41.7L51.74 46.41C52.46 49.72 49.31 52.87 46 52.15L41.29 51.13C39.74 50.79 38.17 51.58 37.53 53.04L35.59 57.48C34.23 60.6 29.77 60.6 28.41 57.48L26.47 53.04C25.83 51.58 24.26 50.79 22.71 51.13L18 52.15C14.69 52.87 11.54 49.72 12.26 46.41L13.28 41.7C13.62 40.15 12.83 38.58 11.37 37.94L6.93 36C3.81 34.64 3.81 30.18 6.93 28.82L11.37 26.88C12.83 26.24 13.62 24.67 13.28 23.12L12.26 18.41C11.54 15.1 14.69 11.95 18 12.67L22.71 13.69C24.26 14.03 25.83 13.24 26.47 11.78L28.41 7.34Z" fill="#DCE8FF"/>
  <path d="M32 40.5C36.6944 40.5 40.5 36.6944 40.5 32C40.5 27.3056 36.6944 23.5 32 23.5C27.3056 23.5 23.5 27.3056 23.5 32C23.5 36.6944 27.3056 40.5 32 40.5Z" fill="#1A2740"/>
  <path d="M32 36.5C34.4853 36.5 36.5 34.4853 36.5 32C36.5 29.5147 34.4853 27.5 32 27.5C29.5147 27.5 27.5 29.5147 27.5 32C27.5 34.4853 29.5147 36.5 32 36.5Z" fill="#5B8DEF"/>
</svg>
